<mxfile host="app.diagrams.net" modified="2022-05-21T01:01:55.156Z" agent="5.0 (Windows)" etag="HQ9pOr07sLuIfnWoK6fN" version="18.0.8" type="github">
  <diagram id="SKwebUCb6MB1lfp-s0nT" name="Page-1">
    <mxGraphModel dx="1847" dy="797" grid="1" gridSize="10" guides="1" tooltips="1" connect="1" arrows="1" fold="1" page="1" pageScale="1" pageWidth="827" pageHeight="1169" math="0" shadow="0">
      <root>
        <mxCell id="0" />
        <mxCell id="1" parent="0" />
        <mxCell id="mVdMI3znJ9PLGeQjxBNN-2" value="BLACK DIAMOND" style="swimlane;startSize=60;fontSize=14;strokeColor=#D1D1D1;" vertex="1" parent="1">
          <mxGeometry width="420" height="885" as="geometry">
            <mxRectangle width="130" height="23" as="alternateBounds" />
          </mxGeometry>
        </mxCell>
        <mxCell id="mVdMI3znJ9PLGeQjxBNN-3" value="" style="rounded=0;whiteSpace=wrap;html=1;fontSize=14;fontColor=#FFFFFF;fillColor=#0D0D0D;strokeColor=#D1D1D1;" vertex="1" parent="mVdMI3znJ9PLGeQjxBNN-2">
          <mxGeometry y="710" width="420" height="110" as="geometry" />
        </mxCell>
        <mxCell id="mVdMI3znJ9PLGeQjxBNN-4" value="" style="rounded=0;whiteSpace=wrap;html=1;fontSize=14;fontColor=#FFFFFF;strokeColor=#D1D1D1;fillColor=#FFFFFF;" vertex="1" parent="mVdMI3znJ9PLGeQjxBNN-2">
          <mxGeometry y="60" width="420" height="650" as="geometry" />
        </mxCell>
        <mxCell id="mVdMI3znJ9PLGeQjxBNN-7" value="" style="rounded=0;whiteSpace=wrap;html=1;fontSize=17;" vertex="1" parent="mVdMI3znJ9PLGeQjxBNN-2">
          <mxGeometry x="20" y="70" width="380" height="340" as="geometry" />
        </mxCell>
        <mxCell id="mVdMI3znJ9PLGeQjxBNN-17" value="" style="shape=image;html=1;verticalAlign=top;verticalLabelPosition=bottom;labelBackgroundColor=#ffffff;imageAspect=0;aspect=fixed;image=https://cdn4.iconfinder.com/data/icons/essential-app-2/16/burger-menu-more-panel-128.png;fontSize=29;fontColor=#FCFCFC;strokeColor=#D1D1D1;fillColor=#0D0D0D;" vertex="1" parent="mVdMI3znJ9PLGeQjxBNN-2">
          <mxGeometry x="12" y="20" width="28" height="28" as="geometry" />
        </mxCell>
        <mxCell id="mVdMI3znJ9PLGeQjxBNN-16" value="&lt;font style=&quot;font-size: 24px;&quot; color=&quot;#fcfcfc&quot;&gt;&lt;font face=&quot;sans-serif&quot;&gt;&lt;b&gt;Agregar al carrito&lt;/b&gt;&lt;/font&gt;&lt;/font&gt;" style="text;html=1;strokeColor=none;fillColor=none;spacing=5;spacingTop=-20;whiteSpace=wrap;overflow=hidden;rounded=0;fontSize=14;fontColor=#FFFFFF;" vertex="1" parent="mVdMI3znJ9PLGeQjxBNN-2">
          <mxGeometry x="205" y="770" width="220" height="30" as="geometry" />
        </mxCell>
        <mxCell id="mVdMI3znJ9PLGeQjxBNN-20" value="&lt;font style=&quot;font-size: 18px;&quot;&gt;&lt;span style=&quot;background-color: rgb(0, 0, 0);&quot;&gt;&lt;font style=&quot;font-size: 24px;&quot;&gt;Seleccionar la talla&lt;/font&gt;&lt;/span&gt;&lt;/font&gt;" style="text;html=1;strokeColor=none;fillColor=none;spacing=5;spacingTop=-20;whiteSpace=wrap;overflow=hidden;rounded=0;fontSize=14;fontColor=#FFFFFF;" vertex="1" parent="mVdMI3znJ9PLGeQjxBNN-2">
          <mxGeometry y="770" width="210" height="30" as="geometry" />
        </mxCell>
        <mxCell id="mVdMI3znJ9PLGeQjxBNN-24" value="&lt;font style=&quot;font-size: 24px;&quot;&gt;PRECIO&lt;/font&gt;" style="text;html=1;strokeColor=none;fillColor=none;spacing=5;spacingTop=-20;whiteSpace=wrap;overflow=hidden;rounded=0;fontSize=14;fontColor=#FFFFFF;" vertex="1" parent="mVdMI3znJ9PLGeQjxBNN-2">
          <mxGeometry x="12" y="740" width="210" height="30" as="geometry" />
        </mxCell>
        <mxCell id="mVdMI3znJ9PLGeQjxBNN-26" value="&lt;div&gt;NOMBRE Y DESCRIPCION&lt;/div&gt;&lt;div&gt;DEL PRODUCTO&lt;/div&gt;" style="text;html=1;align=center;verticalAlign=middle;resizable=0;points=[];autosize=1;strokeColor=none;fillColor=none;fontSize=24;fontColor=#000000;" vertex="1" parent="mVdMI3znJ9PLGeQjxBNN-2">
          <mxGeometry x="50" y="610" width="320" height="60" as="geometry" />
        </mxCell>
        <mxCell id="mVdMI3znJ9PLGeQjxBNN-27" value="" style="shape=image;html=1;verticalAlign=top;verticalLabelPosition=bottom;labelBackgroundColor=#ffffff;imageAspect=0;aspect=fixed;image=https://cdn4.iconfinder.com/data/icons/ionicons/512/icon-search-128.png;rounded=0;shadow=0;glass=0;sketch=0;fontFamily=Koulen;fontSource=https%3A%2F%2Ffonts.googleapis.com%2Fcss%3Ffamily%3DKoulen;fontSize=15;strokeColor=#0A0A0A;fillColor=#D3D5F0;" vertex="1" parent="mVdMI3znJ9PLGeQjxBNN-2">
          <mxGeometry x="290" y="9" width="50" height="50" as="geometry" />
        </mxCell>
        <mxCell id="mVdMI3znJ9PLGeQjxBNN-28" value="&lt;span style=&quot;color: rgba(0, 0, 0, 0); font-family: monospace; font-size: 0px; text-align: start; background-color: rgb(248, 249, 250);&quot;&gt;%3CmxGraphModel%3E%3Croot%3E%3CmxCell%20id%3D%220%22%2F%3E%3CmxCell%20id%3D%221%22%20parent%3D%220%22%2F%3E%3CmxCell%20id%3D%222%22%20value%3D%22%22%20style%3D%22shape%3Dimage%3Bhtml%3D1%3BverticalAlign%3Dtop%3BverticalLabelPosition%3Dbottom%3BlabelBackgroundColor%3D%23ffffff%3BimageAspect%3D0%3Baspect%3Dfixed%3Bimage%3Dhttps%3A%2F%2Fcdn4.iconfinder.com%2Fdata%2Ficons%2Fionicons%2F512%2Ficon-search-128.png%3Brounded%3D0%3Bshadow%3D0%3Bglass%3D0%3Bsketch%3D0%3BfontFamily%3DKoulen%3BfontSource%3Dhttps%253A%252F%252Ffonts.googleapis.com%252Fcss%253Ffamily%253DKoulen%3BfontSize%3D15%3BstrokeColor%3D%230A0A0A%3BfillColor%3D%23D3D5F0%3B%22%20vertex%3D%221%22%20parent%3D%221%22%3E%3CmxGeometry%20x%3D%22933%22%20y%3D%2267%22%20width%3D%2230%22%20height%3D%2230%22%20as%3D%22geometry%22%2F%3E%3C%2FmxCell%3E%3C%2Froot%3E%3C%2FmxGraphModel%3E&lt;/span&gt;" style="html=1;verticalLabelPosition=bottom;align=center;labelBackgroundColor=#ffffff;verticalAlign=top;strokeWidth=1;strokeColor=#0A0A0A;shadow=0;dashed=0;shape=mxgraph.ios7.icons.shopping_cart;fontSize=18;fillColor=#0A0A0A;" vertex="1" parent="mVdMI3znJ9PLGeQjxBNN-2">
          <mxGeometry x="350" y="9" width="50" height="41" as="geometry" />
        </mxCell>
        <mxCell id="mVdMI3znJ9PLGeQjxBNN-29" value="" style="rounded=0;whiteSpace=wrap;html=1;fontSize=17;" vertex="1" parent="mVdMI3znJ9PLGeQjxBNN-2">
          <mxGeometry x="20" y="430" width="380" height="160" as="geometry" />
        </mxCell>
      </root>
    </mxGraphModel>
  </diagram>
</mxfile>
